<?xml version="1.0" standalone="no"?>
<!DOCTYPE svg PUBLIC "-//W3C//DTD SVG 20010904//EN"
 "http://www.w3.org/TR/2001/REC-SVG-20010904/DTD/svg10.dtd">
<svg version="1.0" xmlns="http://www.w3.org/2000/svg"
 width="425.000000pt" height="385.000000pt" viewBox="0 0 425.000000 385.000000"
 preserveAspectRatio="xMidYMid meet">

<g transform="translate(0.000000,385.000000) scale(0.100000,-0.100000)"
fill="#000000" stroke="none">
<path d="M0 1925 l0 -1925 2125 0 2125 0 -1 933 c0 725 -3 928 -12 913 -202
-321 -506 -532 -882 -612 -112 -24 -380 -24 -490 0 -271 60 -491 176 -674 356
-42 42 -95 101 -119 131 -109 144 -201 339 -237 504 -10 44 -20 91 -24 103 -5
17 -37 -100 -105 -372 -56 -227 -109 -417 -123 -446 -14 -28 -47 -75 -74 -105
-225 -246 -606 -248 -835 -3 -29 30 -64 78 -78 106 -17 34 -117 420 -306 1188
-154 625 -280 1139 -280 1141 0 1 150 3 333 3 l332 0 205 -849 c113 -468 208
-847 211 -843 4 4 98 386 210 850 l203 842 334 0 c313 0 333 -1 328 -17 -18
-57 -126 -518 -124 -525 2 -5 18 10 35 34 17 24 66 78 109 121 189 186 408
304 667 358 133 28 360 31 491 5 379 -74 685 -283 893 -612 9 -15 12 52 12
314 l1 332 -2125 0 -2125 0 0 -1925z m3332 -968 c94 -55 122 -158 122 -452 1
-243 -14 -334 -65 -405 -82 -114 -278 -107 -352 11 -39 63 -57 160 -64 344 -6
170 5 296 35 387 19 61 75 122 124 137 55 17 152 7 200 -22z m711 17 l47 -16
0 -59 c0 -32 -1 -59 -3 -59 -1 0 -20 9 -42 20 -47 24 -64 25 -110 6 -42 -18
-65 -61 -65 -124 0 -57 16 -83 134 -211 108 -117 121 -145 121 -256 0 -78 -4
-98 -26 -140 -36 -72 -92 -108 -173 -113 -49 -3 -74 1 -110 16 l-46 21 0 60
c0 34 1 61 3 61 1 0 20 -9 42 -20 47 -24 112 -26 144 -4 28 20 51 72 51 116
-1 56 -34 111 -130 213 -51 54 -102 119 -113 144 -30 66 -29 180 2 244 49 101
157 141 274 101z m-3663 2 c0 -2 22 -106 50 -232 27 -126 56 -274 65 -329 9
-55 18 -101 20 -103 1 -2 8 30 15 70 7 40 34 188 61 329 27 141 49 259 49 263
0 3 25 6 55 6 30 0 55 -3 55 -6 0 -14 80 -883 84 -912 l5 -32 -59 0 -59 0 -5
43 c-10 80 -26 373 -26 487 -1 116 -11 131 -25 35 -6 -46 -70 -389 -96 -513
l-11 -53 -41 3 -42 3 -37 175 c-21 96 -48 238 -61 315 -29 168 -31 162 -47
-165 -6 -118 -13 -241 -16 -272 l-6 -58 -54 0 -54 0 0 33 c0 17 16 221 35 452
19 231 35 430 35 443 0 20 5 22 55 22 30 0 55 -2 55 -4z m1080 -51 l0 -55
-105 0 -105 0 0 -150 0 -150 95 0 95 0 0 -55 0 -55 -95 0 -95 0 2 -162 3 -163
103 -3 102 -3 0 -49 0 -50 -165 0 -165 0 0 475 0 475 165 0 165 0 0 -55z m604
25 c58 -28 108 -98 132 -185 21 -79 30 -344 15 -445 -18 -115 -39 -168 -85
-214 -53 -53 -95 -66 -238 -73 l-118 -6 0 478 0 478 124 -5 c101 -4 131 -9
170 -28z m596 -445 l0 -475 -65 0 -65 0 0 475 0 475 65 0 65 0 0 -475z"/>
<path d="M3174 869 c-37 -19 -54 -63 -65 -176 -13 -125 -6 -396 11 -466 13
-50 56 -97 90 -97 33 0 71 23 86 52 26 49 37 184 31 373 -6 208 -17 265 -59
300 -31 26 -59 30 -94 14z"/>
<path d="M1890 504 l0 -367 48 7 c115 15 152 100 152 351 0 264 -48 375 -162
375 l-38 0 0 -366z"/>
<path d="M3921 3035 l-324 -121 -48 48 c-60 60 -142 112 -227 145 -53 20 -91
27 -177 31 -132 5 -196 -6 -296 -54 -263 -126 -404 -407 -344 -688 90 -426
587 -628 949 -386 41 28 88 66 105 85 17 19 36 35 43 34 7 0 155 -53 328 -118
l315 -117 3 319 c1 175 1 459 0 630 l-3 312 -324 -120z"/>
</g>
</svg>
